<?xml version="1.0" encoding="UTF-8"?>
<svg version="1.1" xmlns="http://www.w3.org/2000/svg" width="462" height="461">
<path d="M0 0 C152.46 0 304.92 0 462 0 C462 152.13 462 304.26 462 461 C309.54 461 157.08 461 0 461 C0 308.87 0 156.74 0 0 Z " fill="#FEFEFE" transform="translate(0,0)"/>
<path d="M0 0 C0 25.08 0 50.16 0 76 C-11.22 76 -22.44 76 -34 76 C-34 76.66 -34 77.32 -34 78 C-34.80703369 78.05945801 -35.61406738 78.11891602 -36.44555664 78.18017578 C-56.04244562 79.67987428 -74.99630738 82.3423608 -94.20800781 86.49682617 C-97 87 -97 87 -101 87 C-101 87.66 -101 88.32 -101 89 C-101.58491211 89.16604736 -102.16982422 89.33209473 -102.77246094 89.50317383 C-105.4342407 90.26417254 -108.09206513 91.03818426 -110.75 91.8125 C-111.67039062 92.07353516 -112.59078125 92.33457031 -113.5390625 92.60351562 C-114.42851562 92.86455078 -115.31796875 93.12558594 -116.234375 93.39453125 C-117.45979004 93.74801636 -117.45979004 93.74801636 -118.70996094 94.10864258 C-121.18117875 95.07052064 -122.90634362 96.39618759 -125 98 C-125.66 98 -126.32 98 -127 98 C-127 132.98 -127 167.96 -127 204 C-152.74 204 -178.48 204 -205 204 C-205 193.53025986 -204.78283442 183.73939292 -203.5625 173.4375 C-203.42779297 172.23287109 -203.29308594 171.02824219 -203.15429688 169.78710938 C-202.78517822 166.52265996 -202.39461321 163.2614426 -202 160 C-201.86464844 158.75347656 -201.72929687 157.50695312 -201.58984375 156.22265625 C-200.96515949 152.80964622 -199.95327636 149.73156015 -198.81152344 146.46337891 C-197.3223096 141.94287121 -196.27020348 137.3045787 -195.125 132.6875 C-193.02083651 124.43335743 -190.56660004 116.74813112 -187 109 C-186.61972656 107.99324219 -186.23945313 106.98648438 -185.84765625 105.94921875 C-182.76363936 97.97202006 -178.69909422 90.95901912 -174.125 83.75 C-173.5482251 82.83943848 -172.9714502 81.92887695 -172.37719727 80.99072266 C-162.27528088 65.39036641 -148.81549128 48.12191442 -133 38 C-132.34 38 -131.68 38 -131 38 C-130.67 37.01 -130.34 36.02 -130 35 C-128.06640625 33.60546875 -128.06640625 33.60546875 -125.5625 32.1875 C-124.20125 31.40632813 -124.20125 31.40632813 -122.8125 30.609375 C-121.884375 30.07828125 -120.95625 29.5471875 -120 29 C-118.35305873 27.98095509 -116.70719653 26.96016387 -115.0625 25.9375 C-101.82635224 18 -101.82635224 18 -96 18 C-96 17.34 -96 16.68 -96 16 C-92.69270427 14.83875966 -89.37839352 13.69893299 -86.0625 12.5625 C-85.13630859 12.23701172 -84.21011719 11.91152344 -83.25585938 11.57617188 C-77.4435172 9.59793612 -72.12696256 8.44616856 -66 8 C-66 7.34 -66 6.68 -66 6 C-43.64318874 1.37600088 -23.22536077 0 0 0 Z " fill="#9A86E2" transform="translate(383,177)"/>
<path d="M0 0 C25.41 0 50.82 0 77 0 C77 24 77 24 75 34 C74.58463655 36.27179012 74.1774166 38.54509621 73.78125 40.8203125 C73.46607422 42.61275391 73.46607422 42.61275391 73.14453125 44.44140625 C72.71351731 46.90471619 72.28383783 49.36825999 71.85546875 51.83203125 C70.77598286 57.95794813 69.61793671 63.9926609 68 70 C67.34 70 66.68 70 66 70 C65.82210937 71.50626953 65.82210937 71.50626953 65.640625 73.04296875 C64.32935846 82.16452392 60.70163691 91.20058857 56.40234375 99.3046875 C54.5521313 102.86080614 52.87244562 106.48830445 51.1875 110.125 C50.87312988 110.80175781 50.55875977 111.47851562 50.23486328 112.17578125 C49.48869656 113.78329201 48.7441698 115.39156383 48 117 C47.34 117 46.68 117 46 117 C45.72542969 117.73734375 45.45085937 118.4746875 45.16796875 119.234375 C36.22367245 140.41351139 15.20272229 157.99419375 -3.125 170.75 C-3.78185791 171.21003418 -4.43871582 171.67006836 -5.11547852 172.14404297 C-16.57315574 180 -16.57315574 180 -21 180 C-21 180.66 -21 181.32 -21 182 C-24.12305373 183.17192435 -27.24874739 184.33663876 -30.375 185.5 C-31.26445312 185.83386719 -32.15390625 186.16773438 -33.0703125 186.51171875 C-34.34648437 186.98544922 -34.34648437 186.98544922 -35.6484375 187.46875 C-36.43395996 187.76201172 -37.21948242 188.05527344 -38.02880859 188.35742188 C-40 189 -40 189 -42 189 C-42 189.66 -42 190.32 -42 191 C-52.54894345 194.45495598 -63.01436331 196.89656405 -73.97875977 198.65527344 C-78.07708292 199.31271649 -82.1090231 199.97765887 -86.12109375 201.05078125 C-99.56979087 204.34185215 -113.16438861 203 -127 203 C-127 177.92 -127 152.84 -127 127 C-121.26625 126.7525 -115.5325 126.505 -109.625 126.25 C-96.10659561 125.60228842 -82.68714519 124.6261055 -69.25 123 C-68.55287903 122.91641235 -67.85575806 122.83282471 -67.13751221 122.7467041 C-59.79452387 121.85554887 -52.51484377 120.81968377 -45.26074219 119.3671875 C-43 119 -43 119 -39 119 C-39 118.34 -39 117.68 -39 117 C-35.35489502 116.03888216 -31.70878721 115.08162202 -28.0625 114.125 C-27.04091797 113.85558594 -26.01933594 113.58617187 -24.96679688 113.30859375 C-19.00038834 111.74550909 -13.0303107 110.2953535 -7 109 C-7 108.34 -7 107.68 -7 107 C-5.02 106.34 -3.04 105.68 -1 105 C-0.67 70.35 -0.34 35.7 0 0 Z " fill="#9985E2" transform="translate(178,75)"/>
<path d="M0 0 C0 34.32 0 68.64 0 104 C-24.75 104 -49.5 104 -75 104 C-75 77.44252352 -69.39972211 57.0543625 -52 37 C-51.57493164 36.4942041 -51.14986328 35.9884082 -50.71191406 35.46728516 C-43.69004688 27.12716675 -35.79483489 20.41203861 -27 14 C-26.22011719 13.42636719 -25.44023437 12.85273438 -24.63671875 12.26171875 C-20.00510758 9.02569664 -15.08442509 6.31894321 -10.125 3.625 C-9.46959229 3.26639893 -8.81418457 2.90779785 -8.13891602 2.53833008 C-5.228521 0.99228896 -3.34515087 0 0 0 Z " fill="#1F2B5C" transform="translate(254,276)"/>
<path d="M0 0 C24.75 0 49.5 0 75 0 C75 7.26 75 14.52 75 22 C74.34 22 73.68 22 73 22 C72.92523438 22.72703125 72.85046875 23.4540625 72.7734375 24.203125 C71.68961561 32.49117478 68.96692919 38.71238321 65 46 C64.24772876 47.64479644 63.49762879 49.29058818 62.75 50.9375 C57.75625792 60.90892712 50.04917582 69.40077811 42 77 C41.23042969 77.7940625 40.46085937 78.588125 39.66796875 79.40625 C36.81642295 82.17847022 33.79431139 84.61026316 30.625 87 C29.76237549 87.65464233 29.76237549 87.65464233 28.88232422 88.32250977 C27.25772488 89.55210397 25.62899617 90.77623679 24 92 C23.2884375 92.54527344 22.576875 93.09054688 21.84375 93.65234375 C18.09390529 96.45620491 14.33010138 98.25276611 10 100 C7.88646339 101.05292551 5.79024781 102.13360282 3.69921875 103.23046875 C2 104 2 104 0 104 C0 69.68 0 35.36 0 0 Z " fill="#1F2B5B" transform="translate(179,75)"/>
<path d="M0 0 C0 25.08 0 50.16 0 76 C-11.22 76 -22.44 76 -34 76 C-34 76.66 -34 77.32 -34 78 C-38.29 78 -42.58 78 -47 78 C-43.3466786 75.5644524 -40.12863885 75.31185537 -35.875 74.875 C-35.08472412 74.78790771 -34.29444824 74.70081543 -33.48022461 74.61108398 C-27.10342391 73.96891187 -20.79715771 73.86875749 -14.39599609 74.16162109 C-10.42828572 74.32205313 -10.42828572 74.32205313 -7.02734375 72.49609375 C-6.51880859 71.75552734 -6.51880859 71.75552734 -6 71 C-6 71.66 -6 72.32 -6 73 C-4.02 73.495 -4.02 73.495 -2 74 C-2.33 49.91 -2.66 25.82 -3 1 C-7.95 1.66 -12.9 2.32 -18 3 C-23.8125 3 -23.8125 3 -26.6875 2.94140625 C-33.8237487 3.06763706 -40.92706715 4.08909835 -48 5 C-49.86785156 5.23783203 -49.86785156 5.23783203 -51.7734375 5.48046875 C-54.45766125 5.91267427 -56.7688225 6.45631259 -59.3125 7.375 C-65.64929985 9.58425845 -72.03690239 11.55186486 -78.5625 13.125 C-81.81038678 13.64011125 -81.81038678 13.64011125 -83 15 C-84.42445647 15.42184715 -85.86545725 15.78869874 -87.3125 16.125 C-88.09238281 16.31320313 -88.87226563 16.50140625 -89.67578125 16.6953125 C-92.12839518 17.01683164 -93.6470883 16.658456 -96 16 C-92.69270427 14.83875966 -89.37839352 13.69893299 -86.0625 12.5625 C-85.13630859 12.23701172 -84.21011719 11.91152344 -83.25585938 11.57617188 C-77.4435172 9.59793612 -72.12696256 8.44616856 -66 8 C-66 7.34 -66 6.68 -66 6 C-43.64318874 1.37600088 -23.22536077 0 0 0 Z " fill="#D8B1DD" transform="translate(383,177)"/>
<path d="M0 0 C1.57499749 3.14999498 0.70833498 5.63540882 0 9 C-0.9787305 10.02082643 -1.97959832 11.02082667 -3 12 C-3.495 13.093125 -3.99 14.18625 -4.5 15.3125 C-6.93647815 20.46363687 -10.53320895 24.68769304 -14.11523438 29.07543945 C-16.46795972 31.9715669 -18.37875834 34.62486963 -20 38 C-24.8789413 43.77561159 -30.93882623 48.6049488 -37.4375 52.4375 C-39.89927676 53.93858339 -41.91586862 55.59199555 -44.125 57.4375 C-48.99140315 61.31092712 -54.08885067 63.22113076 -60 65 C-60.66 64.34 -61.32 63.68 -62 63 C-55.51884312 59.18755478 -55.51884312 59.18755478 -52.6875 58.1640625 C-49.18330418 56.64625675 -46.24718289 54.49882752 -43.1875 52.25 C-42.5680249 51.79898926 -41.9485498 51.34797852 -41.31030273 50.88330078 C-40.08581134 49.99045917 -38.86285718 49.09550471 -37.64160156 48.19824219 C-36.29093985 47.21236359 -34.92481049 46.24771085 -33.5546875 45.2890625 C-28.59778683 41.77063497 -24.85954266 37.67352204 -21 33 C-20.00031824 31.8747172 -19.00032847 30.74970794 -18 29.625 C-11.30893973 21.74164974 -6.41597409 13.32413105 -2 4 C-1.33688414 2.66489717 -0.67170758 1.33080094 0 0 Z " fill="#6A79D8" transform="translate(247,113)"/>
<path d="M0 0 C-0.66644531 0.40089844 -1.33289063 0.80179687 -2.01953125 1.21484375 C-9.17567094 5.62863061 -15.63276985 10.51786 -22 16 C-22.91910156 16.77214844 -23.83820313 17.54429687 -24.78515625 18.33984375 C-33.95690644 26.29901374 -41.16542972 35.32920309 -47 46 C-47.3292749 46.5870874 -47.6585498 47.1741748 -47.99780273 47.77905273 C-53.61073237 57.89873416 -56.86325839 67.64153145 -59 79 C-59.33 79 -59.66 79 -60 79 C-60.43630637 70.71017896 -58.77967263 63.04030671 -57 55 C-55.515 54.505 -55.515 54.505 -54 54 C-52.81139517 51.81570318 -52.81139517 51.81570318 -51.8125 49.125 C-49.44274513 43.57383111 -46.35364487 39.07388659 -42.671875 34.3125 C-40.84160467 32.02407472 -40.84160467 32.02407472 -40 29 C-39.01 29 -38.02 29 -37 29 C-37 28.01 -37 27.02 -37 26 C-36.34 26 -35.68 26 -35 26 C-34.60748047 25.09894531 -34.60748047 25.09894531 -34.20703125 24.1796875 C-32.92577201 21.86595723 -31.75192918 20.7454167 -29.6875 19.125 C-27.25409175 17.1372159 -25.55232141 15.43753203 -23.5625 12.9375 C-20.87877794 9.86103813 -18.37880262 8.16387464 -14.8671875 6.17578125 C-12.95402225 5.06896298 -12.95402225 5.06896298 -11.4765625 3.46484375 C-8.21576251 0.22992312 -4.34501004 -1.44833668 0 0 Z " fill="#5D7EE3" transform="translate(239,283)"/>
<path d="M0 0 C-2.27635203 2.27635203 -4.7441459 3.84757844 -7.44140625 5.5859375 C-9.18812371 6.87892854 -9.18812371 6.87892854 -9.33984375 8.9765625 C-9.66662109 9.97816406 -9.66662109 9.97816406 -10 11 C-11.99415234 12.01161081 -13.99530532 13.00944498 -16 14 C-18.22704043 15.92010409 -20.16614255 18.06068874 -22.125 20.25 C-22.89263672 21.07177734 -22.89263672 21.07177734 -23.67578125 21.91015625 C-26.23795935 24.72262424 -28.37142445 27.4697156 -30.21484375 30.8046875 C-32 34 -32 34 -34.4375 35.875 C-38.13271377 38.93932362 -39.81865307 42.78722689 -42 47 C-42.98994188 48.67266041 -43.98432193 50.34284104 -45 52 C-46.29127684 48.12616948 -45.476912 47.22311686 -43.6875 43.625 C-36.97934192 30.81010491 -15.73188203 -1.07262832 0 0 Z " fill="#7A8BE8" transform="translate(253,217)"/>
<path d="M0 0 C0 0.33 0 0.66 0 1 C-5.08582861 1.43257538 -10.1720834 1.85960106 -15.25878906 2.28173828 C-16.98515043 2.42576283 -18.71139131 2.57123988 -20.4375 2.71826172 C-36.63386411 4.09607742 -36.63386411 4.09607742 -43.1328125 4.03125 C-44.40898438 4.0209375 -45.68515625 4.010625 -47 4 C-48.85708477 5.85708477 -48.12777378 8.9354763 -48.12939453 11.41577148 C-48.13114685 12.08570129 -48.13289917 12.7556311 -48.13470459 13.44586182 C-48.13912291 15.67096512 -48.13618487 17.89598957 -48.1328125 20.12109375 C-48.13348563 21.66187048 -48.13445572 23.2026471 -48.13571167 24.74342346 C-48.13718868 27.97747811 -48.13503429 31.21150519 -48.13037109 34.44555664 C-48.12467856 38.59642708 -48.12794976 42.7472328 -48.13394356 46.89810085 C-48.13755316 50.08161407 -48.13640866 53.26511189 -48.13381577 56.44862556 C-48.13314735 57.97927928 -48.13397194 59.50993438 -48.13629532 61.04058647 C-48.13882784 63.17870675 -48.13497255 65.31672158 -48.12939453 67.45483398 C-48.12859894 68.67315414 -48.12780334 69.8914743 -48.12698364 71.14671326 C-48.19631256 73.94654558 -48.19631256 73.94654558 -47 76 C-33.62334 76.11527017 -20.34282847 76.00295086 -7 75 C-7 75.33 -7 75.66 -7 76 C-21.46336903 78.75492743 -34.97712194 78 -50 78 C-50 52.92 -50 27.84 -50 2 C-43.791875 1.67 -37.58375 1.34 -31.1875 1 C-29.25156982 0.89558594 -27.31563965 0.79117188 -25.32104492 0.68359375 C-16.87641429 0.23777433 -8.46014953 -0.17531465 0 0 Z " fill="#C99FD3" transform="translate(101,200)"/>
<path d="M0 0 C0.33 0 0.66 0 1 0 C1.05886171 3.79159964 1.09388224 7.58307919 1.125 11.375 C1.14175781 12.43589844 1.15851563 13.49679688 1.17578125 14.58984375 C1.2112663 20.37390695 0.87820779 25.693063 -0.40283203 31.33349609 C-1.10783837 34.48152523 -1.6655109 37.64213975 -2.21875 40.8203125 C-2.42886719 42.01527344 -2.63898438 43.21023437 -2.85546875 44.44140625 C-3.28648269 46.90471619 -3.71616217 49.36825999 -4.14453125 51.83203125 C-5.22401714 57.95794813 -6.38206329 63.9926609 -8 70 C-8.66 70 -9.32 70 -10 70 C-10.0825 70.886875 -10.165 71.77375 -10.25 72.6875 C-11.07285859 78.63173222 -13.16009656 84.30913586 -15 90 C-15.66 90 -16.32 90 -17 90 C-17 88.02 -17 86.04 -17 84 C-16.34 84 -15.68 84 -15 84 C-14.90203125 83.41734375 -14.8040625 82.8346875 -14.703125 82.234375 C-13.61050167 76.24378502 -11.94443907 70.65846757 -9.94921875 64.91015625 C-8.66890002 60.98489925 -7.8467921 57.03854692 -7 53 C-6.67 52.34 -6.34 51.68 -6 51 C-5.79132963 46.47142302 -5.79132963 46.47142302 -6.57006836 42.04394531 C-7.09272652 39.55916729 -6.71451142 38.09833166 -6.00390625 35.671875 C-5.77509766 34.87265625 -5.54628906 34.0734375 -5.31054688 33.25 C-5.06369141 32.425 -4.81683594 31.6 -4.5625 30.75 C-4.31951172 29.90953125 -4.07652344 29.0690625 -3.82617188 28.203125 C-3.22626051 26.13284266 -2.61429181 24.06606103 -2 22 C-1.34 22 -0.68 22 0 22 C0 14.74 0 7.48 0 0 Z " fill="#738EDB" transform="translate(254,75)"/>
<path d="M0 0 C0 1.65 0 3.3 0 5 C-0.495 3.02 -0.495 3.02 -1 1 C-1.94359375 1.144375 -2.8871875 1.28875 -3.859375 1.4375 C-9.88058985 2.30803709 -15.7143903 3.13722891 -21.8125 3 C-29.93410619 2.83447813 -37.95895022 3.96441749 -46 5 C-47.86785156 5.23783203 -47.86785156 5.23783203 -49.7734375 5.48046875 C-52.45766125 5.91267427 -54.7688225 6.45631259 -57.3125 7.375 C-63.64929985 9.58425845 -70.03690239 11.55186486 -76.5625 13.125 C-79.81038678 13.64011125 -79.81038678 13.64011125 -81 15 C-82.42445647 15.42184715 -83.86545725 15.78869874 -85.3125 16.125 C-86.09238281 16.31320313 -86.87226563 16.50140625 -87.67578125 16.6953125 C-90.12839518 17.01683164 -91.6470883 16.658456 -94 16 C-90.69270427 14.83875966 -87.37839352 13.69893299 -84.0625 12.5625 C-83.13630859 12.23701172 -82.21011719 11.91152344 -81.25585938 11.57617188 C-75.4435172 9.59793612 -70.12696256 8.44616856 -64 8 C-64 7.34 -64 6.68 -64 6 C-42.49441455 1.55205763 -21.96661001 -0.38863082 0 0 Z " fill="#C195CC" transform="translate(381,177)"/>
<path d="M0 0 C0.66 0 1.32 0 2 0 C1.4671171 5.91015579 -0.984008 10.63114491 -3.5625 15.875 C-3.98724609 16.75414062 -4.41199219 17.63328125 -4.84960938 18.5390625 C-5.89296559 20.69611356 -6.94321884 22.84950288 -8 25 C-8.66 25 -9.32 25 -10 25 C-10.27457031 25.73734375 -10.54914063 26.4746875 -10.83203125 27.234375 C-13.98291673 34.69533459 -19.54399894 42.05183389 -25 48 C-25.66 48 -26.32 48 -27 48 C-27 47.01 -27 46.02 -27 45 C-26.34 45 -25.68 45 -25 45 C-25.33 43.35 -25.66 41.7 -26 40 C-25.24203125 39.93683594 -24.4840625 39.87367188 -23.703125 39.80859375 C-20.11021402 38.7338357 -19.51732055 37.30413796 -17.75 34.0625 C-17.24984375 33.16660156 -16.7496875 32.27070313 -16.234375 31.34765625 C-15.47608049 29.90545687 -14.72869055 28.45738111 -14 27 C-13.34 27 -12.68 27 -12 27 C-11.6596875 25.515 -11.6596875 25.515 -11.3125 24 C-10.22829117 20.13455982 -8.3525164 17.10759109 -6.12109375 13.796875 C-4.59160237 11.3454254 -3.92183226 8.74986323 -3.0625 6 C-2 3 -2 3 0 0 Z " fill="#778AE9" transform="translate(234,167)"/>
<path d="M0 0 C0.99 0 1.98 0 3 0 C2.61117787 3.20778254 1.91578937 5.13502739 0.1875 7.90625 C-2.82231782 13.05038831 -4.17159311 18.73017035 -5.75 24.4375 C-6.06582031 25.55060547 -6.38164062 26.66371094 -6.70703125 27.81054688 C-7.47965545 30.53814443 -8.24370553 33.2678384 -9 36 C-8.34 36.33 -7.68 36.66 -7 37 C-7.66 37 -8.32 37 -9 37 C-10.485 43.435 -10.485 43.435 -12 50 C-12.33 50 -12.66 50 -13 50 C-13.39253963 43.50027398 -11.94007908 37.76824589 -10.3125 31.5 C-9.90692871 29.91010254 -9.90692871 29.91010254 -9.49316406 28.28808594 C-4.18705328 7.84120887 -4.18705328 7.84120887 0 0 Z " fill="#8098E8" transform="translate(196,286)"/>
<path d="M0 0 C1.57499749 3.14999498 0.70833498 5.63540882 0 9 C-0.97930121 10.02027895 -1.98062784 11.01975493 -3 12 C-3.9741343 13.73751514 -3.9741343 13.73751514 -4.78515625 15.63671875 C-7.11436817 20.47329134 -10.1655744 24.57582376 -13.4375 28.8125 C-13.99759766 29.56208984 -14.55769531 30.31167969 -15.13476562 31.08398438 C-20.53332347 38.13297648 -20.53332347 38.13297648 -25 40 C-25.66 39.67 -26.32 39.34 -27 39 C-26.38253906 38.42894531 -25.76507813 37.85789063 -25.12890625 37.26953125 C-15.00320121 27.57536311 -7.91143031 16.69503886 -2 4 C-1.33779635 2.66444448 -0.67291903 1.33018878 0 0 Z " fill="#5470D5" transform="translate(247,113)"/>
<path d="M0 0 C-0.66644531 0.40089844 -1.33289063 0.80179687 -2.01953125 1.21484375 C-13.01496235 7.99664111 -22.50291172 16.28575196 -32 25 C-32.33 24.01 -32.66 23.02 -33 22 C-32.55269531 21.63648438 -32.10539063 21.27296875 -31.64453125 20.8984375 C-28.61797181 18.38168232 -26.02709394 16.0340411 -23.5625 12.9375 C-20.87877794 9.86103813 -18.37880262 8.16387464 -14.8671875 6.17578125 C-12.95402225 5.06896298 -12.95402225 5.06896298 -11.4765625 3.46484375 C-8.21576251 0.22992312 -4.34501004 -1.44833668 0 0 Z " fill="#6A7CE0" transform="translate(239,283)"/>
<path d="M0 0 C0.33 0 0.66 0 1 0 C0.52087184 8.24430867 -0.97785501 16.00044527 -3 24 C-3.66 24 -4.32 24 -5 24 C-5.0825 24.886875 -5.165 25.77375 -5.25 26.6875 C-6.07285859 32.63173222 -8.16009656 38.30913586 -10 44 C-10.66 44 -11.32 44 -12 44 C-12 42.02 -12 40.04 -12 38 C-11.34 38 -10.68 38 -10 38 C-9.90203125 37.41734375 -9.8040625 36.8346875 -9.703125 36.234375 C-8.60930827 30.23724187 -6.93778683 24.64666196 -4.9453125 18.890625 C-3.8814373 15.6374529 -3.12207743 12.39641457 -2.4375 9.046875 C-1.78229072 5.98143156 -0.8946147 3.00334933 0 0 Z " fill="#6A8AE9" transform="translate(249,121)"/>
<path d="M0 0 C0.33 0 0.66 0 1 0 C1.02505615 0.83772949 1.0501123 1.67545898 1.07592773 2.53857422 C1.17100357 5.64352256 1.27024025 8.74830181 1.37231445 11.85302734 C1.43698251 13.85894807 1.49683106 15.86502228 1.55664062 17.87109375 C1.59853516 19.12792969 1.64042969 20.38476562 1.68359375 21.6796875 C1.73858032 23.42354736 1.73858032 23.42354736 1.79467773 25.20263672 C1.81821659 27.9535501 1.81821659 27.9535501 3 30 C16.37666 30.11527017 29.65717153 30.00295086 43 29 C43 29.33 43 29.66 43 30 C28.72871409 32.71834017 14.48431395 32.13860588 0 32 C0 21.44 0 10.88 0 0 Z " fill="#CFA9D5" transform="translate(51,246)"/>
<path d="M0 0 C-6.62390168 2.55051168 -13.05628379 4.5440595 -20 6 C-20.33 6.33 -20.66 6.66 -21 7 C-22.42445647 7.42184715 -23.86545725 7.78869874 -25.3125 8.125 C-26.09238281 8.31320313 -26.87226563 8.50140625 -27.67578125 8.6953125 C-30.12839518 9.01683164 -31.6470883 8.658456 -34 8 C-30.69009373 6.86727048 -27.37664098 5.74527301 -24.0625 4.625 C-23.13630859 4.30789062 -22.21011719 3.99078125 -21.25585938 3.6640625 C-5.3897766 -1.68030222 -5.3897766 -1.68030222 0 0 Z " fill="#AD9CD9" transform="translate(321,185)"/>
<path d="M0 0 C0 0.33 0 0.66 0 1 C-10.89 1 -21.78 1 -33 1 C-33 1.66 -33 2.32 -33 3 C-37.29 3 -41.58 3 -46 3 C-34.318347 -4.78776867 -13.21740783 -0.77130762 0 0 Z " fill="#C7A4D6" transform="translate(382,252)"/>
<path d="M0 0 C1.18414294 3.55242882 0.69535532 4.69830562 -0.4375 8.1875 C-0.72496094 9.08855469 -1.01242188 9.98960937 -1.30859375 10.91796875 C-1.53675781 11.60503906 -1.76492187 12.29210937 -2 13 C-1.34 13.33 -0.68 13.66 0 14 C-0.66 14 -1.32 14 -2 14 C-3.485 20.435 -3.485 20.435 -5 27 C-5.33 27 -5.66 27 -6 27 C-6.22023758 21.45001303 -5.44887404 16.62999875 -4.125 11.25 C-3.95097656 10.49589844 -3.77695313 9.74179687 -3.59765625 8.96484375 C-2.76836996 5.50641276 -1.99037041 2.98555561 0 0 Z " fill="#6187EA" transform="translate(189,309)"/>
<path d="M0 0 C-6.51980844 1.35588937 -13.04697602 2.52061669 -19.62890625 3.53515625 C-21.9465439 3.76058994 -21.9465439 3.76058994 -23 5 C-24.68608966 5.07205511 -26.37500659 5.08386068 -28.0625 5.0625 C-28.98160156 5.05347656 -29.90070313 5.04445312 -30.84765625 5.03515625 C-31.55792969 5.02355469 -32.26820313 5.01195312 -33 5 C-33 4.67 -33 4.34 -33 4 C-29.66749315 3.34985394 -26.33385757 2.7056808 -23 2.0625 C-22.06542969 1.88009766 -21.13085938 1.69769531 -20.16796875 1.50976562 C-4.1753178 -1.56574417 -4.1753178 -1.56574417 0 0 Z " fill="#C8B3DF" transform="translate(350,179)"/>
<path d="M0 0 C0.66 0.33 1.32 0.66 2 1 C-2.31243812 5.66634642 -6.32885094 9.1065566 -12 12 C-10.63959469 7.47313406 -8.79209034 5.74867445 -4.875 3.1875 C-3.96492187 2.58292969 -3.05484375 1.97835937 -2.1171875 1.35546875 C-1.41851562 0.90816406 -0.71984375 0.46085938 0 0 Z " fill="#667FEB" transform="translate(225,150)"/>
<path d="M0 0 C0.33 0 0.66 0 1 0 C0.52087184 8.24430867 -0.97785501 16.00044527 -3 24 C-5.8470764 19.7293854 -4.6222925 17.0393754 -3.71484375 12.1640625 C-2.7675057 7.97092685 -1.47938037 4.03467374 0 0 Z " fill="#7A97ED" transform="translate(249,121)"/>
<path d="M0 0 C0.66 0.33 1.32 0.66 2 1 C0.625 3.5 0.625 3.5 -1 6 C-1.66 6 -2.32 6 -3 6 C-3.433125 6.928125 -3.433125 6.928125 -3.875 7.875 C-5 10 -5 10 -7 12 C-7.99 11.67 -8.98 11.34 -10 11 C-8.52116808 9.35386588 -7.04192523 7.70810092 -5.5625 6.0625 C-4.73878906 5.14597656 -3.91507813 4.22945313 -3.06640625 3.28515625 C-1 1 -1 1 0 0 Z " fill="#26377E" transform="translate(213,301)"/>
<path d="M0 0 C1 2 1 2 -0.1875 5.625 C-1.87338425 9.88654074 -3.89345919 13.93219706 -6 18 C-7.18414294 14.44757118 -6.69535532 13.30169438 -5.5625 9.8125 C-5.27503906 8.91144531 -4.98757812 8.01039062 -4.69140625 7.08203125 C-4.46324219 6.39496094 -4.23507813 5.70789063 -4 5 C-3.34 5 -2.68 5 -2 5 C-1.855625 4.360625 -1.71125 3.72125 -1.5625 3.0625 C-1 1 -1 1 0 0 Z " fill="#1E357A" transform="translate(250,103)"/>
<path d="M0 0 C0 0.99 0 1.98 0 3 C-1.64453125 4.640625 -1.64453125 4.640625 -3.8125 6.25 C-4.52019531 6.79140625 -5.22789062 7.3328125 -5.95703125 7.890625 C-6.96830078 8.43976563 -6.96830078 8.43976563 -8 9 C-8.99 8.67 -9.98 8.34 -11 8 C-9.54712339 6.66072279 -8.08752741 5.32873153 -6.625 4 C-5.81289062 3.2575 -5.00078125 2.515 -4.1640625 1.75 C-2 0 -2 0 0 0 Z " fill="#253579" transform="translate(226,292)"/>
<path d="M0 0 C0.66 0 1.32 0 2 0 C1.40895235 4.84659077 0.02055843 8.60748167 -2 13 C-2.99 12.34 -3.98 11.68 -5 11 C-4.67 10.34 -4.34 9.68 -4 9 C-3.690625 8.030625 -3.38125 7.06125 -3.0625 6.0625 C-2 3 -2 3 0 0 Z " fill="#6984EE" transform="translate(234,167)"/>
<path d="M0 0 C0.33 0.66 0.66 1.32 1 2 C-0.58759644 6.58747193 -2.68985663 10.53706093 -7 13 C-6.65986985 7.55791766 -3.29703472 4.06331802 0 0 Z " fill="#8596E4" transform="translate(222,242)"/>
<path d="M0 0 C0.66 0 1.32 0 2 0 C0.63088196 3.1489715 -0.8752136 5.0478487 -3.5 7.25 C-4.41265625 8.03117188 -4.41265625 8.03117188 -5.34375 8.828125 C-7 10 -7 10 -9 10 C-9 9.34 -9 8.68 -9 8 C-8.34 8 -7.68 8 -7 8 C-7 7.34 -7 6.68 -7 6 C-2.52941176 2 -2.52941176 2 0 2 C0 1.34 0 0.68 0 0 Z " fill="#868DE1" transform="translate(195,226)"/>
<path d="M0 0 C0.66 0 1.32 0 2 0 C2.33 0.99 2.66 1.98 3 3 C1.1875 5.6875 1.1875 5.6875 -1 8 C-1.66 8 -2.32 8 -3 8 C-3 6.35 -3 4.7 -3 3 C-2.01 3 -1.02 3 0 3 C0 2.01 0 1.02 0 0 Z " fill="#7987EA" transform="translate(201,217)"/>
<path d="M0 0 C0.66 0.33 1.32 0.66 2 1 C-0.10515339 4.72450216 -1.24267224 6.6795921 -5.25 8.375 C-6.61125 8.684375 -6.61125 8.684375 -8 9 C-7.04270084 7.87411986 -6.08412105 6.7493285 -5.125 5.625 C-4.59132812 4.99851563 -4.05765625 4.37203125 -3.5078125 3.7265625 C-2.38567993 2.44163349 -1.20628025 1.20628025 0 0 Z " fill="#9198E0" transform="translate(243,220)"/>
<path d="M0 0 C0 3 0 3 -1.1875 4.625 C-3.41406801 6.31412056 -5.25851328 6.62952882 -8 7 C-3.375 1.125 -3.375 1.125 0 0 Z " fill="#848EE4" transform="translate(237,228)"/>
<path d="M0 0 C0.99 0 1.98 0 3 0 C2.43454163 3.95820859 1.19097652 6.6659053 -1 10 C-2.27351308 7.45297384 -1.80191925 6.5717055 -1.0625 3.875 C-0.86785156 3.15054687 -0.67320312 2.42609375 -0.47265625 1.6796875 C-0.31667969 1.12539063 -0.16070312 0.57109375 0 0 Z " fill="#6586ED" transform="translate(196,286)"/>
<path d="M0 0 C-1.26278132 3.78834395 -2.52112952 4.22011278 -6 6 C-8.3125 6.6875 -8.3125 6.6875 -10 7 C-10 6.34 -10 5.68 -10 5 C-9.01 5 -8.02 5 -7 5 C-6.67 4.01 -6.34 3.02 -6 2 C-3.85412616 0.684787 -2.52986895 0 0 0 Z " fill="#777DD8" transform="translate(185,177)"/>
<path d="M0 0 C1.32 0.33 2.64 0.66 4 1 C2.64695791 3.70608417 1.19033456 3.96183047 -1.5625 5.125 C-2.38878906 5.47820312 -3.21507812 5.83140625 -4.06640625 6.1953125 C-4.70449219 6.46085937 -5.34257812 6.72640625 -6 7 C-6 6.34 -6 5.68 -6 5 C-5.195625 4.731875 -4.39125 4.46375 -3.5625 4.1875 C-2.716875 3.795625 -1.87125 3.40375 -1 3 C-0.67 2.01 -0.34 1.02 0 0 Z " fill="#7076D2" transform="translate(251,273)"/>
<path d="M0 0 C-1.09445838 0.86657116 -2.20097781 1.71792724 -3.3125 2.5625 C-3.92738281 3.03816406 -4.54226562 3.51382813 -5.17578125 4.00390625 C-5.77777344 4.33261719 -6.37976563 4.66132813 -7 5 C-7.99 4.67 -8.98 4.34 -10 4 C-9.01 3.67 -8.02 3.34 -7 3 C-6.67 2.01 -6.34 1.02 -6 0 C-3.50907189 -1.24546405 -2.58919267 -0.7767578 0 0 Z " fill="#243475" transform="translate(210,162)"/>
<path d="M0 0 C-3.28463659 2.18975773 -6.20696275 2.99806563 -10 4 C-10 3.34 -10 2.68 -10 2 C-6.5980513 -0.09350689 -3.94727588 -0.17942163 0 0 Z " fill="#8C8CDB" transform="translate(265,270)"/>
<path d="M0 0 C0.66 0.33 1.32 0.66 2 1 C1 3 0 5 -1 7 C-3.5625 7.625 -3.5625 7.625 -6 8 C-5.566875 7.608125 -5.13375 7.21625 -4.6875 6.8125 C-2.73633776 4.71680722 -1.40989838 2.48410667 0 0 Z " fill="#7A83EF" transform="translate(244,221)"/>
</svg>
